<?xml version="1.0" encoding="UTF-8"?>
<svg id="Layer_1" xmlns="http://www.w3.org/2000/svg" version="1.1" viewBox="0 0 100 100">
  <!-- Generator: Adobe Illustrator 29.0.1, SVG Export Plug-In . SVG Version: 2.1.0 Build 192)  -->
  <defs>
    <style>
      .st0 {
        fill: #fff;
      }
    </style>
  </defs>
  <g id="qElufq.tif">
    <g>
      <path class="st0" d="M88.93,21.34c-3.05.37-4.33,4.37-2.39,6.69,2.23,2.67,6.66,1.28,7-2.13v52.77H6.46V21.34h82.46ZM19.94,25.37H6.51v40.94h13.38v-14.04h12.73v14.04h5.21l7.8-40.94h-12.96v14.32h-12.73v-14.32ZM55.63,25.37h-5.14l-7.77,40.94h12.87v-14.04h12.73v14.04h13.48V25.37h-13.43v14.32h-12.73v-14.32ZM67.93,73.45c.12-3.2-5.96-3.13-5.73.02.14,1.84,2.21,1.79,3.46,2.32.97.41.7,1.21-.2,1.32-.79.09-1.57-.16-1.57-1.07h-1.88c-.09,2.39,2.59,2.97,4.45,2.41,1.24-.37,1.95-1.49,1.63-2.78-.39-1.56-2.4-1.49-3.55-1.99-.25-.11-.52-.28-.46-.6.14-.76,2.11-.59,1.96.39h1.88ZM8.34,71.25h-1.83v7.23h1.83v-2.96h2.39v2.96h1.88v-7.23h-1.88v2.63h-2.39v-2.63ZM19.42,71.25h-5.64v7.23h5.73v-1.64h-3.85v-1.36h3.43v-1.46h-3.43v-1.22h3.76v-1.55ZM22.38,71.25h-1.88v7.23h5.17v-1.64h-3.29v-5.59ZM28.39,71.25h-1.88v7.23h5.17v-1.64h-3.29v-5.59ZM32.55,71.25h-2.09l2.54,4.53v2.7h1.88v-2.7l2.58-4.53h-2.16l-1.34,2.82-1.41-2.82ZM42.76,71.25h-1.88v7.23h1.88v-2.96h2.39v2.96h1.88v-7.23h-1.88v2.63h-2.39v-2.63ZM54.64,78.48l-2.61-7.18-1.88-.05-2.65,7.23h1.93l.42-1.29h2.4s.42,1.29.42,1.29h1.97ZM57.02,71.25h-1.9v7.23h1.74v-4.41l2.47,4.41h1.9v-7.23h-1.78v4.32l-2.42-4.32ZM74.6,71.25h-5.64v7.23h5.73v-1.64h-3.85v-1.36h3.43v-1.46h-3.43v-1.22h3.76v-1.55ZM77.58,71.25h-1.9v7.23h1.78v-4.37l2.42,4.37h1.9v-7.23h-1.78v4.32l-2.42-4.32Z"/>
      <path d="M90.19,21.34c1.49.28,2.74,1.35,3.17,2.82.07.23.1.47.16.7-.02.33.03.71,0,1.03-.33,3.42-4.76,4.81-7,2.13-1.94-2.32-.66-6.32,2.39-6.69h1.27ZM89.15,22.29c-1.27.15-2.35,1.33-2.56,2.56-.48,2.72,2.66,4.8,4.89,3.02,2.44-1.95.86-5.96-2.33-5.57Z"/>
      <path class="st0" d="M90.19,21.34h3.33v3.52c-.07-.23-.1-.47-.16-.7-.43-1.46-1.68-2.53-3.17-2.82Z"/>
      <polygon points="55.63 25.37 55.63 39.69 68.36 39.69 68.36 25.37 81.79 25.37 81.79 66.32 68.31 66.32 68.31 52.28 55.58 52.28 55.58 66.32 42.72 66.32 50.49 25.37 55.63 25.37"/>
      <polygon points="19.94 25.37 19.94 39.69 32.67 39.69 32.67 25.37 45.63 25.37 37.83 66.32 32.62 66.32 32.62 52.28 19.89 52.28 19.89 66.32 6.51 66.32 6.51 25.37 19.94 25.37"/>
      <polygon points="77.58 71.25 80 75.57 80 71.25 81.79 71.25 81.79 78.48 79.89 78.48 77.47 74.11 77.47 78.48 75.68 78.48 75.68 71.25 77.58 71.25"/>
      <polygon points="57.02 71.25 59.43 75.57 59.43 71.25 61.22 71.25 61.22 78.48 59.32 78.48 56.85 74.06 56.85 78.48 55.11 78.48 55.11 71.25 57.02 71.25"/>
      <polygon points="42.76 71.25 42.76 73.88 45.16 73.88 45.16 71.25 47.04 71.25 47.04 78.48 45.16 78.48 45.16 75.52 42.76 75.52 42.76 78.48 40.88 78.48 40.88 71.25 42.76 71.25"/>
      <polygon points="8.34 71.25 8.34 73.88 10.74 73.88 10.74 71.25 12.61 71.25 12.61 78.48 10.74 78.48 10.74 75.52 8.34 75.52 8.34 78.48 6.51 78.48 6.51 71.25 8.34 71.25"/>
      <polygon points="19.42 71.25 19.42 72.8 15.67 72.8 15.67 74.02 19.09 74.02 19.09 75.47 15.67 75.47 15.67 76.83 19.52 76.83 19.52 78.48 13.79 78.48 13.79 71.25 19.42 71.25"/>
      <polygon points="74.6 71.25 74.6 72.8 70.85 72.8 70.85 74.02 74.27 74.02 74.27 75.47 70.85 75.47 70.85 76.83 74.7 76.83 74.7 78.48 68.97 78.48 68.97 71.25 74.6 71.25"/>
      <path d="M67.93,73.45h-1.88c.15-.98-1.82-1.14-1.96-.39-.06.32.21.49.46.6,1.14.51,3.16.44,3.55,1.99.32,1.29-.39,2.41-1.63,2.78-1.86.56-4.54-.02-4.45-2.41h1.88c0,.92.78,1.17,1.57,1.07.91-.11,1.17-.91.2-1.32-1.25-.53-3.32-.48-3.46-2.32-.23-3.15,5.85-3.22,5.73-.02Z"/>
      <path d="M54.64,78.48h-1.97l-.42-1.29h-2.4s-.42,1.29-.42,1.29h-1.93l2.65-7.23,1.88.05,2.61,7.18ZM51.83,75.75l-.77-2.4-.77,2.4h1.55Z"/>
      <polygon points="32.55 71.25 33.96 74.06 35.3 71.25 37.46 71.25 34.87 75.78 34.87 78.48 33 78.48 33 75.78 30.46 71.25 32.55 71.25"/>
      <polygon points="22.38 71.25 22.38 76.83 25.67 76.83 25.67 78.48 20.5 78.48 20.5 71.25 22.38 71.25"/>
      <polygon points="28.39 71.25 28.39 76.83 31.68 76.83 31.68 78.48 26.51 78.48 26.51 71.25 28.39 71.25"/>
      <path class="st0" d="M89.15,22.29c3.19-.38,4.77,3.62,2.33,5.57-2.23,1.79-5.37-.29-4.89-3.02.22-1.23,1.29-2.41,2.56-2.56ZM91.13,27.16l-.75-1.39c.76-.31.89-1.51.23-1.97-.1-.07-.48-.21-.58-.21h-1.62v3.57h.66v-1.27h.6s.62,1.27.62,1.27h.85Z"/>
      <polygon class="st0" points="51.83 75.75 50.28 75.75 51.05 73.36 51.83 75.75"/>
      <path d="M91.13,27.16h-.85l-.62-1.26h-.6s0,1.26,0,1.26h-.66v-3.57h1.62c.11,0,.48.14.58.21.66.46.53,1.66-.23,1.97l.75,1.39ZM89.07,25.23h.87s.25-.14.28-.19c.11-.15.11-.46,0-.61-.03-.04-.25-.19-.28-.19h-.87v.99Z"/>
      <path class="st0" d="M89.07,25.23v-.99h.87s.25.14.28.19c.11.15.11.46,0,.61-.03.04-.25.19-.28.19h-.87Z"/>
    </g>
  </g>
</svg>