<svg xmlns="http://www.w3.org/2000/svg" viewBox="0 0 100 100" fill="#1d1d1b" role="img" aria-label="imholz logo">
  <path d="M84.02,63.06c.03.48,0,1.03-.59,1.06-.35.02-.6-.07-.6-.47,0-.59.75-.62,1.19-.59Z"/>
  <path d="M1.07,57.26l97.83.06.04,9.98H1.28s-.22-.14-.22-.16v-9.89ZM45.43,59.02c-.31.02-.61.23-.72.53l-1.55,5.44c.15.23.37.08.57.08.29-.01.34.18.52-.24l1.64-5.54c.05-.22-.29-.27-.45-.26ZM16.54,60.1c.05-.27-.04-.65,0-.94,0-.13-1.06-.12-1.2-.08-.4.12-.31,1.14-.07,1.22.21.07,1.22.08,1.27-.21ZM18.6,59.08c-.29.02-1.03-.09-1.24.09-.17.15-.17.85-.07,1.06.14.18,1.05.05,1.31.08.21-.41.14-.81,0-1.23ZM52.47,64.99c.36.06,1.03,0,1.44,0,.15,0,.07-.33.05-.43-.23-.9-.89-2.19-1.25-3.11-.21-.55-.44-1.47-.69-1.93s-.59-.47-1.05-.46c-.26,0-.75.03-.99.07-.11.02-.21.06-.28.16l-2.19,5.7h1.34c.5,0,.47-1.07.82-1.17.17-.05,1.91-.03,2.06.03.3.13.23,1.06.73,1.14ZM12.21,59.13c-.98-.1-2.12.07-3.12,0l-.09.09v5.68l.09.09h3.06c.16,0,.65-.11.83-.17,1.4-.45,1.37-2.6-.17-2.82-.04-.17.22-.15.36-.24.49-.3.67-.65.64-1.23-.04-.9-.77-1.32-1.59-1.4ZM28.72,59.29v5.24s.1.29.12.32c.18.23,1.44.22,1.44,0v-5.3s-.11-.24-.15-.28c-.18-.18-1.34-.21-1.41.03ZM62.89,64.99c.31.05.85,0,1.19,0,.26,0,.09-.58.09-.71-.03-1.45.14-3.16,0-4.56-.01-.14-.12-.59-.28-.59h-1.19l-.09.09v2.03c-1.85-1.28-3.52.33-3.03,2.37.38,1.56,2.02,1.93,3.15.87v.39s.13.1.16.11ZM89.88,62.03v2.25c0,.08.17.36.25.44.41.43,1.73.42,2.25.17l-.03-.84c-.13-.18-.84.19-.96-.48-.04-.2-.05-1.38.02-1.51.13-.26.68-.02.88-.18.15-.12.17-.77-.02-.88s-.73.02-.87-.24c-.07-.14.13-.81-.03-1.06l-1.44.59c-.14.15.11.49-.17.58-.15.05-.65,0-.86.01-.1,0-.21.06-.31.06-.6,0-.3-.77-.34-1.16-.01-.08.03-.11-.09-.09-.13.03-1.29.49-1.37.55-.21.16.04.45-.12.61-.18.18-.62-.16-.72.18-.04.14-.04.7.04.8l.59.1.09.09c.07.66-.18,2.34.39,2.8.46.37,1.46.19,2.02.15l.09-.09-.02-.84c-.09-.13-.8.04-.9-.29-.03-.11-.07-.7-.08-.86-.04-1.46.37-.95,1.53-.97l.16.09ZM26.34,61.31c-1.67-1.37-3.55.03-3.1,2.07.26,1.17,1.35,1.79,2.48,1.33.23-.09.39-.28.62-.34-.12.65.03,1.29-.85,1.3-.46,0-.47-.35-.65-.46-.05-.03-1.06-.08-1.22-.08-.07,0-.14.03-.21.06-.09.89.83,1.3,1.58,1.37.9.08,2.29-.05,2.67-1.02.27-.69.24-3.07.18-3.88-.01-.17-.05-.55-.15-.66-.18-.18-1.58-.31-1.35.32ZM32.62,63.25h2.62c.31-.36.04-1.3-.19-1.68-.56-.91-2.13-1-3.02-.6-1.16.53-1.37,2.77-.47,3.59.7.64,2.39.69,3.15.15.23-.16.97-1,.46-1.14-.05-.01-.91-.02-.98,0-.53.08-.32.8-1.18.61-.41-.09-.71-.83-.39-.92ZM66.38,63.25h2.68c.41-.9-.28-2.13-1.22-2.4-.87-.25-2.25-.1-2.74.76-.5.89-.48,2.47.43,3.1.88.62,3.18.51,3.52-.71.18-.63-.33-.38-.75-.37-.23,0-.41-.16-.63.06-.08.08-.09.2-.15.28-.47.61-1.56-.04-1.16-.72ZM84.24,64.99h1.25c.18,0,.03-.48.03-.59-.02-.78.14-2.21-.12-2.87-.45-1.16-4.03-1.12-3.81.6h1.4c.2-.32.2-.63.68-.56.45.07.48.82.15.79-.92-.08-2.41.06-2.54,1.24-.17,1.55,1.81,1.91,2.71.96.05.11.12.4.25.44ZM14.73,60.94v3.02s.12.34.15.41c.42.9,1.9.9,2.5.19.21.67,1.03.43,1.57.38.08-.06.08-.13.09-.22.11-.83-.06-1.74-.07-2.56,0-.31.17-.8.03-1.09-.01-.03-.17-.19-.19-.19h-1.25c-.11.1-.14.2-.16.34-.04.38.08.94.07,1.38,0,.23-.04.86-.08,1.04-.12.54-.98.54-1.1,0-.14-.61.16-2.14-.13-2.61-.2-.32-1.11-.14-1.44-.09ZM21.32,60.88h-1.25c-.25.23-.09.47-.09.71,0,1.03-.03,2.06.03,3.09.08.23.28.28.5.31.16.02,1.03.05,1.03-.16v-1.81s.12-.35.15-.41c.26-.48.75-.32,1.19-.49.1-.09.05-1.03-.04-1.15-.32-.46-1.17.26-1.37.59,0-.18.06-.63-.16-.69ZM37.58,64.84v-2.25s.09-.41.11-.45c.2-.49,1.04-.44,1.13.21.08.53-.13,2.12.1,2.46.2.3,1.46.25,1.46.03v-2.93c0-.13-.24-.6-.34-.72-.52-.6-1.93-.49-2.44.13-.06-.15,0-.36-.2-.42-.16-.05-1.33-.03-1.38.06.03,1.01-.07,2.08-.01,3.08.01.18.07.76.17.84.2.16,1.32.22,1.39-.03ZM56.05,64.93v-2.4c0-.05.11-.41.16-.47.22-.31.83-.33,1.02.04.18.35.03,1.66.08,2.17.02.18.09.73.34.73h1.12c.06-.04.08-.09.09-.16.06-.33,0-.94,0-1.31,0-.53.06-1.08,0-1.61-.16-1.37-2.03-1.4-2.8-.54.04-.12-.02-.5-.16-.5h-1.31c-.23.29-.04.76-.03,1.09.03.91-.05,1.81.03,2.72.14.45,1.1.32,1.47.25ZM74.75,60.88c-.34-.07-.88.05-1.25,0l-.09.09v3.49s.12.38.14.39c.28.16,1.19.24,1.39.01s.04-.52.03-.77c0-.52-.05-1.38.08-1.86.15-.55,1.02-.58,1.11-.01.1.64-.16,2,.1,2.52.15.31.88.28,1.18.25.27-.03.31-.07.34-.34.07-.71-.13-1.76.03-2.41.13-.54.9-.6,1.09-.09.24.64-.13,2.1.13,2.61.02.04.2.23.21.23h1.19l.09-.09v-2.74c0-.2-.18-.71-.31-.87-.56-.71-2.13-.64-2.56.16-.78-.85-1.85-.82-2.68-.06.02-.2.02-.45-.22-.5ZM69.85,61.03v3.55c0,.12.2.38.34.4.18.03,1.22.05,1.22-.15v-1.81s.12-.35.15-.41c.28-.52,1.09-.34,1.19-.49v-1.19c-.59-.24-1.02.16-1.38.56-.07-.14.02-.47-.14-.56-.19-.1-1.32-.14-1.39.09Z"/>
  <path d="M43.95,54.39c-.03-.11-.06-.22-.07-.34-.16-2.02.14-4.24-.01-6.29-.4-1.27-2.27-.95-2.47.31-.05.33-.07.93-.08,1.29-.06,1.5.17,3.38,0,4.81-.01.09,0,.16-.1.22h-2.93c-.3,0-.23-1.1-.22-1.34.03-1.39.08-2.72,0-4.11-.04-.75.15-1.75-.87-1.94-1.21-.23-1.62.8-1.69,1.81-.12,1.77.12,3.68-.03,5.46-.01.03-.11.13-.12.13h-2.93l-.09-.09v-9.6l.09-.09h2.93c.19.23.05.64.09.94,1.33-1.31,3.5-1.81,4.99-.47.16.14.35.54.58.52.12-.01.73-.62.93-.75,1.79-1.18,5.16-.37,5.16,2.04v7.42l-.09.09h-3.09Z"/>
  <path d="M51.72,41.05c.31.09.1,1.33.09,1.59-.02.97.02,1.93.07,2.9,1.9-2,5.81-1.82,6.22,1.36.3,2.31-.05,4.93.07,7.27-.01.06-.06.17-.11.2-.12.07-2.52.06-2.84.03-.11,0-.23-.01-.33-.08-.18-.39-.02-.82-.01-1.2.02-1.36.07-2.91,0-4.25-.05-.98-.19-1.97-1.41-1.97-1.99,0-1.58,2.62-1.59,3.91,0,.98.08,2.25,0,3.18-.02.22-.02.38-.28.41-.6.07-2.08.06-2.69,0-.11-.01-.21,0-.28-.09l-.06-12.79c-.04-.15.14-.46.28-.46h2.87Z"/>
  <path d="M63.34,44.37c4-.39,6.42,1.85,6.13,5.88-.26,3.61-3.77,5.09-6.99,4.24-5.06-1.33-4.68-9.58.86-10.12ZM63.9,46.99c-2.09.28-2.07,4.38-.39,4.98,1.23.44,2.23-.22,2.5-1.44.35-1.55-.05-3.82-2.11-3.54Z"/>
  <path d="M79.15,47.16h-4.4c-.29-.27-.1-.63-.09-.96,0-.29,0-.59,0-.88,0-.26-.18-.49.09-.71h8.3l.09.09v2.49l-4.65,4.46.06.12h4.68s.16.14.16.16v2.37l-.09.09h-8.86l-.09-.09v-2.37c1.37-1.48,2.88-2.82,4.34-4.21.16-.15.41-.35.47-.56Z"/>
  <path d="M30.84,54.39h-3.21s-.11-.1-.12-.13v-13.1s.11-.13.12-.13h3.18l.09.09v13.1s-.08.09-.06.16Z"/>
  <path d="M73.66,54.33l-3.03.06-.13-.06c-.28-.34-.09-.73-.08-1.09.06-3.96-.03-7.93-.04-11.89.12-.51.7-.25,1.06-.24.42,0,.84,0,1.25,0,.31,0,.69-.21.96.09v13.13Z"/>
  <path d="M54.31,35.12l-1.55.02c-.38-.11-.36-.63-.91-.85-1.01-.4-1.95.49-1.09.96.91.49,2.62.57,3.32,1.43.88,1.08.5,2.58-.72,3.2-1.8.91-4.89.39-4.79-2.1l.09-.09,1.57.03c.29.55.68,1.08,1.36,1.14.99.08,1.76-.79.43-1.31-1.05-.41-2.72-.56-3.22-1.77-.4-.98-.08-2.17.88-2.68,1.69-.89,4.71-.35,4.61,2.02Z"/>
  <path d="M56.62,39.74v2.34l-.09.09h-1.56l-.09-.09v-7.17l.09-.09h1.56l.16.44c1.6-1.32,3.21-.38,3.59,1.49.36,1.75-.53,4.11-2.69,3.44-.36-.11-.62-.42-.96-.44ZM57.35,36.13c-.77.14-.8,1.33-.64,1.92.27,1.03,1.63.94,1.78-.16.1-.8-.07-1.95-1.13-1.76Z"/>
  <path d="M63.28,34.64c1.31-.05,2.58.58,2.91,1.91.42,1.66-.23,3.32-2.01,3.66-4.44.86-4.91-5.41-.9-5.58ZM62.75,36.33c-.53.5-.5,2.15.28,2.46,1.27.51,1.61-1.09,1.33-2.01-.21-.69-1.07-.95-1.6-.44Z"/>
  <path d="M72.77,33.51c.18.16-.02.94.14,1.19.14.23.7-.05.75.26.02.12.02.82-.03.9-.2.33-.72-.25-.78.4-.07.74.05,1.61.02,2.36.11.37.7.25.77.35.03.24.11.95-.1,1.09-.19.13-1.2.13-1.46.09-1.58-.22-.88-2.93-1.04-4.02-.08-.42-.55-.01-.72-.28-.07-.11-.08-1,.07-1.05,1.07.23.4-.97.77-1.29.16-.14,1.46-.14,1.61-.02Z"/>
  <path d="M70.1,34.68v1.75c-2.35-.3-1.43,2-1.62,3.4-.06.42-.62.27-.97.28-.23,0-.33.13-.61-.01-.42-.22-.17-.96-.17-1.32.02-1.15-.13-2.65,0-3.75.01-.09,0-.16.1-.22h1.31c.25,0,.21.53.31.69.34-.54,1-.96,1.65-.81Z"/>
  <path d="M11.77,62.56c.61.11.65,1.01.17,1.23-.21.1-1.33.16-1.33-.08v-1s.08-.09.06-.16c.33.04.78-.06,1.09,0Z"/>
  <path d="M10.63,60.27c.19-.18,1.1-.05,1.33.11.37.26.26.99-.19,1.06-.16.02-.72.07-.87.07-.08,0-.13-.01-.19-.06-.1-.08-.18-1.07-.07-1.18Z"/>
  <path d="M51.37,62.69h-1.44c.27-.66.4-1.53.68-2.15.03-.06.04-.15.13-.15l.62,2.31Z"/>
  <path d="M25.39,61.7c.93-.19,1.04,1.16.78,1.78-.16.39-.44.46-.85.39-.69-.11-.72-2,.07-2.16Z"/>
  <path d="M61.44,61.89c.15-.15.52-.18.72-.09.67.28.73,2.51-.45,2.32-.7-.11-.68-1.8-.27-2.22Z"/>
  <path d="M67.66,62.37h-1.37c-.08-1,1.5-1.04,1.37,0Z"/>
  <path d="M33.83,62.37h-1.31c-.14-1.05,1.51-.99,1.31,0Z"/>
</svg>
