<?xml version="1.0" encoding="UTF-8"?>
<svg id="Layer_1" xmlns="http://www.w3.org/2000/svg" version="1.1" viewBox="0 0 100 100">
  <!-- Generator: Adobe Illustrator 29.0.1, SVG Export Plug-In . SVG Version: 2.1.0 Build 192)  -->
  <g id="iJDkFF">
    <g>
      <path d="M99.32,58.94h-17c-.58-.53-.23-1.46-.32-2.19-.83-6.87-5.92-12.72-12.56-14.56-.39-.11-2.12-.57-2.35-.57h-3.02c.44-1.22,1.14-2.32,1.56-3.55,1.59-4.79.93-9.32-1.35-13.76,18.99-.52,35.38,15.6,35.04,34.62Z"/>
      <path d="M.98,58.94c-.26-.08-.32-.48-.33-.73-.03-.5.17-2.28.23-2.92,1.7-17.61,17.35-31.47,35.04-30.97-3.2,5.37-3.03,12,.21,17.31h-3.02c-.55,0-2.69.61-3.34.83-6.91,2.25-11.9,9.18-11.78,16.48H.98Z"/>
      <path d="M49.22,24.17c11.58-1.09,12.72,16.58,1.4,17.24-11.26.66-12.44-16.21-1.4-17.24Z"/>
      <path d="M42.69,64.78l2.61,7.3.46-.27,3.11-7,4.58.09,3.21,7.39,2.92-7.51h3.44l-4.2,11.03-4.37-.1-3.42-7.79-3.54,7.72c-.5.45-3.45.17-4.29.11l-4.16-10.96h3.65Z"/>
      <path d="M5.05,64.78v4.8c1.36-.28,6.89-4.8,7.61-4.8h4.69l-6.67,4.27,7.09,6.78h-4.69l-4.84-4.98-3.19,1.75v3.23H1.29v-11.05h3.75Z"/>
      <path d="M26.9,64.84c2.51-.21,5.31.26,7.48,1.57,1.97,1.19,3.34,3.04,2.4,5.4-2.14,5.41-15.04,5.41-17.33.15-1.91-4.38,4.02-6.82,7.45-7.11ZM32.29,72.63c1.11-1.13,1.25-2.77.37-4.08-2.18-3.26-10.09-2.4-9.68,2.17.33,3.74,6.88,4.4,9.31,1.91Z"/>
      <path d="M82.22,75.83h-4.17l-1.6-2.46c-2.07.12-4.64-.3-6.65-.05-1.05.13-1.31,1.84-2.07,2.52h-3.86l6.78-10.85c.38-.34,3.97-.34,4.38,0l7.2,10.84ZM75.33,71.45l-2.3-3.96c-.21-.14-2.38,3.57-2.5,3.96h4.8Z"/>
      <path d="M88.89,75.83h-3.75v-11.05h8.24c.42,0,1.88.38,2.4.52,4.35,1.22,5.04,4.34.41,5.83-.33.11-1.77.53-1.97.53h-5.01l-.31.31v3.86ZM88.89,69.78h4.69c.41,0,2.28-.93,1.9-1.67-.46-1.7-5.01-1.58-6.39-1.36l-.2,3.04Z"/>
    </g>
  </g>
</svg>