<?xml version="1.0" encoding="UTF-8"?>
<svg id="Layer_1" xmlns="http://www.w3.org/2000/svg" version="1.1" viewBox="0 0 100 100">
  <!-- Generator: Adobe Illustrator 29.0.1, SVG Export Plug-In . SVG Version: 2.1.0 Build 192)  -->
  <defs>
    <style>
      .st0 {
        fill: #1d1d1b;
      }
    </style>
  </defs>
  <g id="dc1Af8">
    <g>
      <path class="st0" d="M99.44,58.63h-2.4v-3.21h2.35c-.02.12.04.27-.04.36h-1.89v.96l.04.04h1.75v.36h-1.79v1.08l.1.04h1.89s0,.36,0,.36Z"/>
      <path class="st0" d="M80.17,58.68c-.07,0-.26-.05-.33-.08-.47-.14-.74-.51-.79-1l.42-.04c-.07.87,1.68,1.01,1.75.23.03-.33-.24-.46-.5-.54-.5-.16-1.45-.22-1.53-.9-.07-.61.4-.95.96-.99.68-.05,1.3.18,1.38.94l-.42.04c.07-.85-1.72-.81-1.52-.03.06.24.28.29.48.35.49.15,1.3.19,1.49.77.22.65-.32,1.19-.93,1.26-.12.01-.36.01-.47,0Z"/>
      <path class="st0" d="M.56,57.6c.14.02.28-.06.42-.02.07.6.71.82,1.23.71.6-.12.79-.74.17-.99s-1.7-.19-1.66-1.11c.04-.8,1.04-.95,1.66-.76.38.12.69.47.66.89l-.39.03c0-.6-.76-.74-1.21-.55-.35.14-.47.56-.11.77.34.2.95.2,1.33.4.69.35.64,1.22-.01,1.57l-.47.16h-.47c-.42-.08-.79-.21-.99-.61l-.15-.39v-.08Z"/>
      <path class="st0" d="M71.51,58.68c-.13-.01-.35-.08-.47-.13-.39-.16-.64-.54-.64-.96l.39-.02c.05.63.73.83,1.26.71.5-.11.74-.68.24-.94-.55-.29-1.8-.2-1.78-1.12.03-1.19,2.39-1.15,2.34.09l-.39.03c-.03-.6-.78-.74-1.24-.55-.36.14-.43.6-.07.78.54.27,1.54.18,1.76.89.19.63-.33,1.15-.93,1.22-.12.01-.36.01-.47,0Z"/>
      <path class="st0" d="M55.25,58.68c-.77-.08-.99-.6-1.03-1.3-.04-.64.03-1.32,0-1.97h.42v2.08c0,.07.06.34.09.41.22.52,1.29.53,1.52.02.03-.07.1-.34.1-.41v-2.11h.42v2.14c0,.6-.45,1.07-1.03,1.13-.12.01-.36.01-.47,0Z"/>
      <path class="st0" d="M32.12,58.68c-1.66-.18-1.75-3.19.1-3.33.7-.05,1.22.23,1.44.91l-.4.1c-.14-.28-.26-.53-.58-.62-1.64-.48-1.86,2.39-.5,2.57.58.08.99-.24,1.12-.79l.42.11c-.12.38-.32.72-.68.91-.09.05-.33.13-.43.14-.11.01-.36.01-.47,0Z"/>
      <path class="st0" d="M17.01,46.9h-.67c-.01-.52-.16-1.03-.35-1.51-1.55-3.82-6.82-4.55-9.57-1.61l.29.29h2.74l.04-.04v-1.89l.32.31c.2-.02,1-.16,1.12-.06l2.19,5.31v-4.86s.06.01.08.04c.44.45.98.76,1.38,1.24.04.04.14.17.15.21v6.77c-.35.43-.79.74-1.22,1.06-.07.02-.27-.19-.33-.25-.77-1.52-1.29-3.23-2.05-4.74-.02-.04-.04-.11-.09-.12v5.95c-.14.02-.27.03-.41.03-.18,0-.71-.04-.86-.09-.03,0-.3-.24-.3-.26v-4.27l-.04-.04h-1.52v3.88c-.61-.28-1.05-.8-1.54-1.24v-7.12s-.04-.06-.06-.03c-.71.85-1.23,1.91-1.28,3.03h-.7c.36-3.65,3.72-6.02,7.3-5.53,2.81.39,5.16,2.65,5.35,5.53ZM9.5,45.36h-1.56v1.73h1.52l.04-.04v-1.69Z"/>
      <path class="st0" d="M84.94,45.32s.06-.04.1-.04c.89-.1,1.99.08,2.91,0,1.09,0,2.18.31,2.32,1.56.13,1.17-.48,1.84-1.57,2.07-.04,0-.08-.02-.07.04.35.22.63.47.88.8.48.62.84,1.37,1.29,2.01l-.03.06h-1.51c-.47-.61-.85-1.29-1.3-1.91-.21-.29-.44-.66-.8-.76-.26-.07-.6-.06-.87-.07v2.7l-.04.04h-1.26l-.04-.04v-6.45ZM86.28,48.04c.44-.01.89.02,1.33,0,.25-.01.66-.02.89-.12.63-.26.55-1.38-.2-1.5-.07-.01-.27-.03-.33-.03h-1.69v1.65Z"/>
      <path class="st0" d="M46.4,45.28h2.98c1.41-.04,2.47.55,2.33,2.11-.08.91-.76,1.35-1.58,1.52-.04,0-.08-.02-.07.04,1.04.62,1.49,1.85,2.17,2.81l-.03.06h-1.51c-.51-.66-.91-1.41-1.42-2.08-.14-.18-.28-.38-.48-.5-.31-.18-.73-.15-1.08-.16v2.7l-.04.04h-1.27v-6.54ZM47.71,48.04c.43-.01.87.02,1.3,0,.24,0,.66-.02.88-.1.6-.22.62-1.22.01-1.46-.12-.05-.38-.09-.5-.09h-1.69v1.65Z"/>
      <polygon class="st0" points="19.71 45.28 22.38 49.58 22.38 45.28 23.6 45.28 23.6 51.77 23.56 51.81 22.31 51.81 19.67 47.6 19.67 51.81 18.48 51.81 18.44 51.77 18.44 45.28 19.71 45.28"/>
      <path class="st0" d="M33.69,45.28c.87.03,1.77-.04,2.64,0,2.29.1,2.93,1.67,2.81,3.76-.1,1.72-1.19,2.84-2.95,2.78-.76-.07-1.67.09-2.4,0-.04,0-.07,0-.1-.04v-6.49ZM35,46.44v4.22s.06.04.1.04c.41.05,1.51.02,1.88-.14.6-.25.76-.96.79-1.55.05-.86.04-2.18-.94-2.5-.34-.11-1.37-.16-1.73-.11-.04,0-.07,0-.1.04Z"/>
      <polygon class="st0" points="45.11 45.28 45.11 46.39 41.62 46.39 41.62 47.82 44.86 47.82 44.86 48.94 41.62 48.94 41.62 50.7 45.21 50.7 45.25 50.74 45.25 51.77 45.21 51.81 40.32 51.81 40.28 51.77 40.28 45.28 45.11 45.28"/>
      <polygon class="st0" points="83.69 45.28 83.69 46.39 80.21 46.39 80.17 46.44 80.17 47.82 83.43 47.82 83.43 48.94 80.17 48.94 80.17 50.65 80.21 50.7 83.8 50.7 83.8 51.77 83.76 51.81 78.9 51.81 78.85 51.77 78.85 45.28 83.69 45.28"/>
      <polygon class="st0" points="32.43 46.39 28.91 46.39 28.91 47.82 32.18 47.82 32.18 48.94 28.91 48.94 28.91 50.7 32.54 50.7 32.54 51.77 32.5 51.81 27.6 51.81 27.6 45.28 32.39 45.28 32.43 45.32 32.43 46.39"/>
      <path class="st0" d="M77.54,47.15l-1.34.05c-.07-.37-.22-.7-.6-.83-.42-.15-1.44-.14-1.64.34-.25.59.57.81.98.93,1.14.33,2.63.47,2.76,1.98.18,1.97-1.73,2.5-3.33,2.24-1.16-.19-1.88-1.03-1.95-2.2l1.28-.11c.14.97.78,1.32,1.72,1.22.79-.08,1.41-1.01.59-1.44-1.09-.58-3.2-.37-3.36-2.14-.18-2.03,2.61-2.46,3.96-1.67.59.35.89.95.93,1.62Z"/>
      <polygon class="st0" points="54.3 45.28 54.3 47.85 56.83 47.85 56.87 47.81 56.87 45.28 58.18 45.28 58.18 51.77 58.14 51.81 56.87 51.81 56.87 48.96 54.3 48.96 54.3 51.77 54.26 51.81 52.99 51.81 52.99 45.28 54.3 45.28"/>
      <path class="st0" d="M65.42,51.81h-1.38l-.62-1.48h-2.54s-.61,1.48-.61,1.48h-1.31l-.04-.06,2.51-6.43s.05-.04.09-.05c.13-.02,1.24-.02,1.3.02l2.58,6.41v.11ZM61.26,49.22h1.73l-.88-2.35-.85,2.35Z"/>
      <path class="st0" d="M70.03,45.28h1.31v4.2c.06,2.09-1.52,2.65-3.33,2.38-1.41-.21-1.87-1.25-1.87-2.57v-4.01h1.3l.04.04v4.36c0,.95,1.09,1.28,1.86,1.02.7-.24.66-.96.68-1.58.04-1.28-.04-2.57,0-3.84Z"/>
      <path class="st0" d="M17.01,48.55c-.13,1.85-1.24,3.53-2.78,4.53-2.35,1.52-5.37,1.36-7.57-.34-1.41-1.09-2.53-2.66-2.64-4.5.05-.06.24.27.3.27l.7.04c.2,1.61,1.05,3.06,2.42,3.94,1.1.71,2.68.85,3.95.63,2.46-.43,4.43-2.39,4.58-4.93l.38.36h.66Z"/>
      <path class="st0" d="M91.93,52.04v-3.97h3.92l.04.04v3.88l-.04.04h-3.92ZM94.22,48.55h-.7v1.12h-1.09v.7h1.09v1.08l.04.04h.66v-1.12h1.12v-.7h-1.08l-.04-.04v-1.08Z"/>
      <polygon class="st0" points="25.02 45.28 26.27 45.28 26.31 45.32 26.31 51.77 26.27 51.81 25.02 51.81 24.97 51.77 24.97 45.32 25.02 45.28"/>
      <path class="st0" d="M92.6,55.42l.91,2.74.94-2.74h.59v3.21h-.42v-2.65l-.92,2.61c-.06.08-.29.04-.39.03l-.95-2.7v2.71h-.39v-3.21h.64Z"/>
      <polygon class="st0" points="59.23 55.42 60.92 57.93 60.92 55.42 61.34 55.42 61.34 58.63 60.91 58.63 59.19 56.11 59.19 58.63 58.8 58.63 58.8 55.42 59.23 55.42"/>
      <polygon class="st0" points="15.53 57.9 15.53 55.42 15.95 55.42 15.95 58.63 15.52 58.63 13.86 56.15 13.8 56.11 13.8 58.63 13.41 58.63 13.41 55.42 13.84 55.42 15.53 57.9"/>
      <polygon class="st0" points="20.11 57.9 20.11 55.42 20.53 55.42 20.53 58.63 20.1 58.63 18.45 56.15 18.38 56.11 18.38 58.63 17.99 58.63 17.99 55.42 18.42 55.42 20.11 57.9"/>
      <polygon class="st0" points="42.29 57.9 42.29 55.42 42.68 55.42 42.68 58.63 42.23 58.63 40.6 56.15 40.53 56.11 40.53 58.63 40.14 58.63 40.14 55.42 40.57 55.42 42.21 57.86 42.29 57.9"/>
      <path class="st0" d="M63.38,58.63v-3.21h1.55s.23.06.26.07c1.29.45,1.09,3.14-.4,3.14h-1.41ZM63.8,58.27h.82c.12,0,.38-.06.49-.12.76-.39.65-2.37-.33-2.37h-.99v2.49Z"/>
      <path class="st0" d="M89.97,55.42c-.02.12.04.27-.04.36h-1.89v.96l.04.04h1.75v.36h-1.79v1.08l.04.04h1.94v.36h-2.4v-3.21h2.35Z"/>
      <polygon class="st0" points="29 55.42 29 55.78 27.11 55.78 27.07 55.82 27.07 56.74 27.11 56.79 28.86 56.79 28.86 57.15 27.11 57.15 27.07 57.19 27.07 58.22 27.11 58.27 29.05 58.27 29.05 58.63 26.68 58.63 26.68 55.42 29 55.42"/>
      <polygon class="st0" points="36.01 55.42 36.01 56.73 37.68 56.73 37.68 55.42 38.1 55.42 38.1 58.63 37.68 58.63 37.68 57.09 36.01 57.09 36.01 58.63 35.59 58.63 35.59 55.42 36.01 55.42"/>
      <polygon class="st0" points="47.71 55.42 47.71 56.98 47.79 56.94 49.32 55.42 49.86 55.42 48.55 56.72 49.94 58.63 49.4 58.63 48.25 57.01 47.71 57.5 47.71 58.63 47.29 58.63 47.29 55.42 47.71 55.42"/>
      <path class="st0" d="M5.5,57.32v1.31h-.42v-3.21h1.66c.15,0,.47.17.57.29.52.62.08,1.61-.74,1.61h-1.08ZM5.5,56.95h.94s.26-.05.32-.07c.39-.14.46-.72.17-.98-.05-.04-.21-.13-.26-.13h-1.16v1.17Z"/>
      <path class="st0" d="M11.73,58.63h-.46l-.37-.96h-1.37s-.38.96-.38.96h-.41l1.24-3.21.45.03,1.3,3.18ZM10.73,57.32l-.54-1.56-.52,1.56h1.06Z"/>
      <polygon class="st0" points="75.04 55.42 76.03 56.92 77 55.42 77.46 55.42 76.2 57.25 76.2 58.63 75.78 58.63 75.78 57.25 74.55 55.42 75.04 55.42"/>
      <polygon class="st0" points="85.84 55.42 85.84 55.78 84.77 55.78 84.77 58.63 84.36 58.63 84.36 55.78 83.29 55.78 83.29 55.42 85.84 55.42"/>
      <path class="st0" d="M24.89,55.42v.36h-1.05l-.04.04v2.81h-.39v-2.81l-.04-.04h-1.01c-.08-.09-.03-.25-.04-.36h2.57Z"/>
      <rect class="st0" x="44.8" y="55.42" width=".42" height="3.21"/>
    </g>
  </g>
</svg>