<?xml version="1.0" encoding="UTF-8"?>
<svg id="Layer_1" xmlns="http://www.w3.org/2000/svg" version="1.1" viewBox="0 0 100 100">
  <!-- Generator: Adobe Illustrator 29.0.1, SVG Export Plug-In . SVG Version: 2.1.0 Build 192)  -->
  <path d="M15.5,55.89v-2.34c0-1.05-.53-1.73-1.69-1.73h-.51v-2.24c1.38,0,2.12-.31,2.12-1.31s-.67-1.31-1.72-1.31h-.93v8.94h-3.14v-11.8h4.63c2.21,0,4.35,1.3,4.35,3.67,0,1.14-.46,2.13-1.21,2.86.76.5,1.24,1.19,1.24,2.34v2.94h-3.14Z"/>
  <path d="M24.06,56.14c-2.54,0-4.59-2.06-4.59-4.58v-7.47h3.14v6.84c0,1.21.45,2.12,1.45,2.12s1.45-.91,1.45-2.12v-6.84h3.14v7.47c0,2.52-2.06,4.58-4.59,4.58Z"/>
  <path d="M34.72,44.03v2.92c-.31-.06-.48-.11-.77-.11-.68,0-1.24.34-1.24,1.02,0,1.05,2.1,2.77,2.1,4.78,0,2.83-2.34,3.5-3.85,3.5-.79,0-1.25-.11-1.79-.26v-2.88s.62.23,1.11.23c.71,0,1.27-.37,1.27-.9,0-1.21-2.09-2.44-2.09-4.8,0-1.47,1.02-3.68,4.01-3.68.42,0,.76.11,1.25.17Z"/>
  <path d="M40.56,44.03v2.92c-.31-.06-.48-.11-.77-.11-.68,0-1.24.34-1.24,1.02,0,1.05,2.1,2.77,2.1,4.78,0,2.83-2.34,3.5-3.85,3.5-.79,0-1.25-.11-1.79-.26v-2.88s.62.23,1.11.23c.71,0,1.27-.37,1.27-.9,0-1.21-2.09-2.44-2.09-4.8,0-1.47,1.02-3.68,4.01-3.68.42,0,.76.11,1.25.17Z"/>
  <path d="M44.93,44.09v11.8h-3.14v-11.8h3.14Z"/>
  <path d="M48.2,52.51v1.19c-.37,0-.63.06-.63.49,0,1.05-.36,1.89-1.69,1.89h-.24v-1.18c.41,0,.62-.1.62-.71,0-1.36.97-1.68,1.94-1.68Z"/>
  <path d="M50.39,53.65c-.38,0-.68.29-.68.65s.3.64.68.64c.15,0,.3-.04.43-.08v1.2c-.13.06-.25.08-.43.08-1.07,0-1.93-.82-1.93-1.84s.87-1.85,1.93-1.85c1.16,0,1.91.72,1.91,1.94v1.68h-1.25v-1.78c0-.37-.19-.65-.67-.65Z"/>
  <path d="M55.05,56.08v-1.98c0-.29-.14-.47-.42-.47s-.42.18-.42.47v1.98h-1.25v-2.07c0-.87.77-1.55,1.67-1.55s1.67.69,1.67,1.55v2.07h-1.25Z"/>
  <path d="M58.26,51.75c0,.36-.3.65-.68.65s-.68-.29-.68-.65.3-.65.68-.65.68.29.68.65ZM58.22,52.51v3.56h-1.25v-3.56h1.25Z"/>
  <path d="M60.72,56.14c-1.12,0-1.79-.64-1.79-1.82v-2.84h1.25v1.03h.72v1.2h-.72v.22c0,.94.11,1.04.67,1.04v1.16h-.13Z"/>
  <path d="M63.26,53.65c-.38,0-.68.29-.68.65s.3.64.68.64c.15,0,.3-.04.43-.08v1.2c-.13.06-.25.08-.43.08-1.07,0-1.93-.82-1.93-1.84s.87-1.85,1.93-1.85c1.16,0,1.91.72,1.91,1.94v1.68h-1.25v-1.78c0-.37-.19-.65-.67-.65Z"/>
  <path d="M67.03,56.07h-1.25v-2.07c0-.85.76-1.55,1.67-1.55.09,0,.11,0,.19.01v1.19c-.4-.07-.61.13-.61.57v1.85Z"/>
  <path d="M63.1,51.56c0,.28-.25.51-.54.51s-.54-.23-.54-.51.25-.52.54-.52.54.24.54.52Z"/>
  <path d="M64.83,51.56c0,.28-.25.51-.54.51s-.54-.23-.54-.51.25-.52.54-.52.54.24.54.52Z"/>
  <path d="M47.94,49.56v-2.11c0-.33-.19-.49-.45-.49s-.45.16-.45.49v2.11h-1.28v-5.24h1.28v1.59c.24-.13.58-.23.9-.23.71,0,1.28.57,1.28,1.28v2.6h-1.28Z"/>
  <path d="M51.63,49.62c-1.09,0-1.98-.88-1.98-1.97s.89-1.98,1.98-1.98c.72,0,1.35.39,1.68.94l-1.54,1.72s.6.02,1.02-.3l.36,1.24c-.45.28-.95.34-1.52.34ZM51.63,46.96c-.38,0-.69.31-.69.69,0,.12.04.21.12.3l.85-.93c-.08-.04-.13-.05-.27-.05Z"/>
  <path d="M54.91,44.93c0,.38-.31.69-.69.69s-.69-.31-.69-.69.31-.69.69-.69.69.31.69.69ZM54.87,45.74v3.81h-1.28v-3.81h1.28Z"/>
  <path d="M58.65,49.56h-3.39l1.37-2.59h-1.3v-1.22h3.3l-1.37,2.6h1.4v1.22Z"/>
  <path d="M60.67,49.62c-.92,0-1.71-.73-1.71-1.66v-2.22h1.28v2.12c0,.31.14.5.43.5s.43-.19.43-.5v-2.12h1.28v2.22c0,.93-.78,1.66-1.71,1.66Z"/>
  <path d="M65.08,49.56v-2.12c0-.31-.14-.5-.43-.5s-.43.19-.43.5v2.12h-1.28v-2.22c0-.93.79-1.66,1.71-1.66s1.71.73,1.71,1.66v2.22h-1.28Z"/>
  <path d="M67.59,50.84v-1.11c.16.08.36.11.71.11.61,0,1-.36,1-.91v-1.11c0-.49-.23-.86-.65-.86-.45,0-.64.3-.64.69,0,.34.31.58.69.58.15,0,.21-.02.34-.05v1.11c-.22.09-.35.09-.58.09-.91,0-1.73-.64-1.73-1.73s.76-1.98,1.98-1.98c1.1,0,1.88.76,1.88,2.08v1.17c0,1.23-.71,2.03-2.07,2.03-.34,0-.92-.11-.92-.11Z"/>
  <rect x="91.35" y="44.02" width="8.25" height="3.63"/>
  <rect x="91.35" y="48.12" width="8.25" height="3.63"/>
  <rect x="91.35" y="52.22" width="8.25" height="3.63"/>
  <rect x=".39" y="44.09" width="8.25" height="3.63"/>
  <rect x=".39" y="48.19" width="8.25" height="3.63"/>
  <rect x=".39" y="52.28" width="8.25" height="3.63"/>
  <path d="M77.12,52.73h-2.8v3.18h-3.12v-7.48c0-2.47,2.04-4.47,4.52-4.47s4.52,2,4.52,4.47v7.48h-3.12v-3.18ZM74.33,50.06h2.8v-1.57c0-.78-.61-1.43-1.4-1.43s-1.4.65-1.4,1.43v1.57Z"/>
  <path d="M81.06,50.06c0-3.37,2.29-6.1,6.87-6.1,1.08,0,1.86.15,2.5.34v3.03c-1.12-.26-1.84-.26-2.8-.26-2.29,0-3.52,1.26-3.52,2.98s1.44,3.06,3.15,3.06v-3.92h3.12v6.73c-.88.17-1.63.23-2.47.23-4.63,0-6.85-2.72-6.85-6.09Z"/>
</svg>