<svg xmlns="http://www.w3.org/2000/svg" viewBox="0 0 2000 2000" role="img" aria-labelledby="logoTitle logoDesc">
  <title id="logoTitle">Logo</title>
  <desc id="logoDesc">Grouped, simplified SVG structure for easier animation and HTML embedding.</desc>

  <!-- Core mark -->
  <g id="core-shape">
    <path d="M795.8,745.9c-4.2-5.4-9.2-6.4-14.2-7.3c-10.3-1.7-20.6-2.9-30.8-5c-9-1.8-17.8-4.5-26.6-7c-9.3-2.7-14.3-8.9-14.5-18.7
      c-0.1-5.7-0.5-11.4-0.2-17.1c0.3-6.3,2.5-8.8,8.8-9.9c7-1.1,14.2-1.8,21.3-2.1c29.7-1.4,59.5-2.4,89.2-4
      c10.1-0.5,20.2-2.2,30.3-3.4c5.1-0.6,8.5-3.4,9.9-8.6c0.7-2.5,2-4.9,3.3-7.2c3.5-6.1,8.8-9.5,15.8-10.2c7.5-0.7,14.6,0.6,21.4,3.8
      c5.6,2.7,9.6,6.8,11.9,12.6c1.3,3.2,2.4,6.5,3.4,9.8c1.3,4.3,4.2,6.4,8.6,6.4c3.1,0.1,6.1-0.3,9.2-0.1c6.3,0.5,12.7,0.5,18.7,2.1
      c12.6,3.4,19.3,15.6,15.7,28.2c-1.3,4.6-3.9,8.9-6.1,13.2c-1.1,2.2-2.8,4-4,6.2c-2.7,4.6-2.6,9.3-0.2,14c3.1,6.1,8,10.3,14.3,12.8
      c4.7,1.9,9.6,3.5,14.4,5c18.4,5.6,33.2,16,44.8,31.3c12.8,16.7,23.9,34.5,34.4,52.7c5.3,9.2,10.6,18.3,15.8,27.6
      c13.7,24.4,29.4,47.4,46.5,69.6c13.8,17.9,26.8,36.5,40.4,54.6c11,14.6,22.5,29,33.8,43.4c11.2,14.3,22.6,28.4,33.5,42.9
      c14.2,18.9,22.2,40.7,29,63c2.9,9.3,2.1,18.5-1.7,27.5c-2.6,6.2-6.8,10.6-13.5,12.3c-2.8,0.7-5.5,1.6-8.3,2.1
      c-6.2,0.9-10.1,4.6-11.7,10.3c-1.6,5.6-2.9,11.5-3.5,17.3c-3.2,32.8-3.3,65.6-0.1,98.3c0.9,9.5,2.8,19,5.7,28.1
      c3.4,10.8,2.6,20.8-2.3,30.8c-2,4-3.9,8.1-6.3,11.9c-5.4,8.7-13,14.2-23,17.1c-27.4,7.8-54.9,15.6-82.1,24
      c-11.7,3.6-22.9,8.5-34.4,12.8c-3.4,1.3-6.9,2.9-10.4,3.4c-5.3,0.8-9.6,3.4-13.5,6.7c-6.8,5.5-13.4,11.3-20.2,16.9
      c-2.3,1.9-4.4,5.1-7.8,3.6c-3.2-1.5-2.9-5.3-2.6-8.2c0.6-6.5,1.7-12.9,2.6-19.3c0.2-1.5,0.7-3,1.4-5.7c-2.4,0.9-3.8,1.2-5.1,1.9
      c-7.6,4.4-12.7,11.3-17.9,18.2c-1.2,1.6-2.8,3-4.4,4.7c-3.2-3.4-2.8-6.9-1.9-9.8c1.8-5.8,3.9-11.5,6.7-16.9
      c2.2-4.3,5.4-8.1,8.5-12.6c-0.8-1.4-1.8-3.1-3.2-5.5c-5.2,3.6-10,7-14.8,10.3c-4.6,3.1-8.1,7.8-15.1,9.5c0.6-2.9,0.8-4.9,1.5-6.6
      c3.3-8.2,8.1-15.5,14.2-21.9c2.1-2.2,4.2-4.4,7.3-7.6c-2.5,0.6-3.9,0.6-5,1.2c-5.9,2.8-11.7,5.7-17.6,8.5c-2.1,1-4.4,1.5-6.9,2.4
      c-1.6-4.5,0.9-7,2.6-9.5c8.2-12.1,18.4-22.3,30.7-30.3c3.9-2.5,8-4.8,12.3-6.7c2.7-1.2,5.9-1.6,8.9-2c25.5-2.9,51.1-5.5,76.5-8.7
      c7.2-0.9,14.4-2.7,21.4-5c13-4.2,14.2-9.9,4.8-19.5c-1.9-1.9-3.9-3.6-5.6-5.6c-3.9-4.5-8.1-7.7-14.7-6.6c-4.2,0.7-7.2-2.3-9.8-5.3
      c-4.9-5.6-7.9-12.3-10.1-19.4c-0.8-2.5-1.5-5-2.2-7.4c-0.7-0.1-1.1-0.3-1.4-0.1c-8.2,3.6-11.9,1.8-12.9-7.1
      c-1.4-12.9,0.1-25.7,2.3-38.3c2.7-14.9,7-29.3,13.4-43.1c1.4-3.1,3-6.2,2.2-10.4c-1.5,0.7-2.9,1.1-3.9,1.9
      c-14.1,10.8-27.4,22.5-39.8,35.2c-9.7,10-11.4,21.2-5.8,33.7c1.5,3.3,3.2,6.6,4.8,9.9c1.2,2.4,2.5,4.7,3.6,7.1
      c6.1,13.5,4.2,23-7.4,32.5c-9.8,8-20.5,15-32.3,19.6c-22.5,8.7-44.4,18.5-65.1,30.8c-2.8,1.7-5.8,3-8.8,4.3c-8,3.6-16,3.6-24.3,0.3
      c-9.4-3.8-19.1-7.1-28.8-10c-15.3-4.6-29.9-10.8-44-18.2c-4.3-2.3-8.6-4.6-12.9-7.1c-2.5-1.5-4.8-1.7-7.5-0.6
      c-9.9,3.8-19.8,7.5-29.7,11.2c-2.1,0.8-4.2,1.7-6.4,1.9c-3.3,0.3-5-1.8-4.1-5c0.5-1.7,1.4-3.5,2.6-4.8c4.4-4.8,9-9.4,13.5-14.1
      c1.3-1.3,2.7-2.4,5-4.4c-2.3,0.1-3.6-0.1-4.7,0.3c-6.9,2-13.7,4-20.5,6.1c-1.2,0.4-2.3,0.8-3.5,1.2c-2.1,0.7-4.8,1.9-5.8-0.9
      c-0.5-1.3,0.6-4,1.9-5.1c7.3-6.5,14.8-12.7,22.3-19c1.3-1.1,2.8-2.1,4.2-3.2c-0.1-0.4-0.3-0.8-0.4-1.2c-8.3,1.4-16.6,2.9-24.9,4.4
      c-1.4,0.2-2.8,0.7-4.2,1c-1.8,0.4-4.2,1-4.7-1.2c-0.3-1.3,0.9-3.5,2.1-4.5c9.5-8.1,19.8-15,31.4-19.8c1.8-0.8,3.6-1.6,5.2-3.2
      c-5.4,0-10.7,0-16.1,0c-2,0-4.1,0.3-6.1-0.1c-3.2-0.5-4-2.8-1.8-5.2c0.8-0.9,1.8-1.6,2.9-2.2c15.3-8.3,31.4-12.2,48.8-10
      c2.4,0.3,4.9,0.8,7.1,1.9c6.1,3.2,12.6,4.4,19.2,5.7c8.9,1.8,17.1,5.3,24.7,10.2c8,5.2,16.1,10.3,24.1,15.6
      c4.8,3.2,9.9,5.5,15.7,6.4c7.7,1.2,14.6-0.9,20.6-5.7c9.7-7.8,10.1-19.9,1.1-30.3c-3.6,0.3-5.3,3.1-6.6,6.1c-0.7,1.7-1,3.5-1.6,5.2
      c-0.6,1.7-1.6,2.8-4.2,1.9c-0.2-1.1-0.5-2.4-0.5-3.7c-0.1-3.5,0.3-7,0-10.4c-0.8-8.3-4.2-14.9-12.7-17.7c-4.7-1.6-7-4.7-6.7-9.6
      c2-27.8,10.6-53,29.9-73.8c14.1-15.2,32-22.7,52.3-25.2c7.2-0.9,14.4-2.3,23-3.6c-2.1-2-3.1-3.2-4.3-4
      c-13.9-9.2-27.9-18.4-41.9-27.6c-4.4-2.9-5.1-2.8-8.8,1.1c-5.6,5.9-11.2,11.9-16.5,18c-24.6,28.2-52.8,52.1-84.7,71.5
      c-12.9,7.8-26.2,14.8-39.4,22.1c-2.3,1.3-4.6,2.5-7.1-0.1c-0.6-0.6-2.3-0.3-3.5-0.3c-2.4,0.1-4.9,0.4-7.3,0.6
      c-13.8,0.7-26.3-2.7-36.5-12.6c-9-8.6-17.9-17.3-27-25.8c-13.6-12.9-27.4-25.6-41-38.5c-2.6-2.4-5.6-3-9-3.3
      c-3.6-0.3-7.1-1.4-10.7-1.9c-2-0.3-4-0.4-5.9,0c-9.2,1.6-18.4,3.5-27.6,5.1c-2.3,0.4-5.3,1.7-6.6-1.2c-1.3-3,1.6-4.2,3.5-5.6
      c9.5-6.7,19.1-13.2,30.3-17c2.1-0.7,2.1-0.8,2.9-3.9c-10.5-1.2-20.7,0.7-30.8,3.2c-1.8,0.4-3.5,1.2-5.3,1.3c-1,0.1-2.3-0.8-2.9-1.6
      c-0.3-0.4,0.4-1.9,1-2.6c0.8-0.9,2-1.4,3-2.1c11.2-6.8,22.7-12.9,36.3-13.6c1.1-0.1,2.2-1.2,4.2-2.4c-2.4-0.9-3.6-1.7-4.9-1.9
      c-7.3-0.9-14.6-1.6-21.9-2.3c-1.2-0.1-2.5,0.2-3.6-0.2c-1.4-0.5-2.6-1.5-3.9-2.3c0.8-1.3,1.3-3,2.5-3.8c5.8-4,12.3-6.6,19.3-7.2
      c5.8-0.5,11.8-0.1,17.6,0.1c2.1,0.1,4.1,0.7,5.2-2.4c-3.7-3.2-7.6-6.4-11.4-9.8c-1.5-1.3-3.1-2.7-4.2-4.4c-1.4-2.1-0.3-4.2,2.2-4.4
      c2.4-0.2,5-0.2,7.2,0.6c7.1,2.6,14,5.5,20.9,8.4c1.7,0.7,3.3,1.8,5,2.2c15.4,3.1,28.4,11.2,40.7,20.3c10.7,7.9,20.6,16.7,31.1,24.8
      c4,3.1,8.4,5.9,13,8c7.5,3.4,11.4,2.4,16.7-3.9c3.2-3.9,6.2-8.1,9-12.4c8.6-13.4,17-26.9,25.4-40.4c1.7-2.7,3.1-5.8,4.1-8.8
      c1.4-4.4,0.4-7-3.6-9.3c-2.6-1.5-5.6-2.6-8.5-3.2c-14.7-3.3-29.5-6.3-44.2-9.6c-22.2-4.9-43.3-13-64.5-20.9
      c-12.9-4.8-21.4-13.9-25.9-26.7c-3-8.7-5.7-17.4-8.1-26.3c-3.7-13.9-9.7-26.8-14.8-40.1c-6-15.6-17.2-25.7-30.7-34.2
      c-2.1-1.3-4.1-3.1-6.2-4.7c2.1-3.8,5.1-3.3,7.8-3.1c9.5,0.8,18.3,3.6,26.5,8.5c1.4,0.8,2.7,2.9,5.2,0.6c-0.8-1.2-1.5-2.6-2.5-3.7
      c-5.3-5.9-10.7-11.8-16-17.7c-1-1.1-2-2-2.9-3.1c-1.4-1.9-4-3.7-2.1-6.3c1.7-2.3,4.5-1.2,6.8-0.5c11.6,3.7,22.2,9.1,31,17.8
      c2.5,2.5,4.8,3.6,8.4,0.6c-4-5-7.8-10-11.8-14.8c-1.9-2.4-4.2-4.5-6.1-6.8c-1.3-1.7-3.8-3.6-1.9-5.7c0.9-1,3.8-0.9,5.5-0.4
      c11.7,3.1,21.1,9.5,27.3,20.1c1.7,2.9,3.3,5.8,6.1,8.4c-0.3-3.4-0.6-6.7-1-10c-0.9-6.9-1.9-13.7-2.7-20.6c-0.2-1.8,0-4.5,1.1-5.4
      c2.1-1.8,4.2,0.4,5.8,1.9c12.2,11.1,18.6,24.8,16.5,41.4c-0.7,5.3,0.4,9.1,3.9,13.1c6.9,7.8,12.8,16.4,17.3,25.8
      c3.6,7.6,8.5,14.4,14.7,20.1c8.2,7.6,17.7,12.2,29.1,12.4c8.6,0.1,17.1-0.5,25.4-3.1c5.6-1.7,9.2-5,9.8-11.1
      c0.3-2.6,0.6-5.3,1.2-7.8c1.1-4.7,0.7-8.6-3.7-11.9c-3.8-2.9-4.8-7.7-4.6-12.2c0.7-11.4,1.6-22.8,3.1-34c1.1-8.1,5.9-13.9,13-18.3
      c15-9.2,28.5-20.5,40-33.8c3.5-4.1,6-9.2,8.3-14.1c1.6-3.3,1.6-7,0-11.5c-1.7,1.2-3.2,1.9-4,3c-2.9,3.9-5.9,7.8-8.3,12.1
      c-16.5,29.8-52.7,38.7-78.1,30.2c-6.5-2.2-13-4.7-19.4-7.4c-5.5-2.2-10.7-5.1-16.2-7.3c-12.7-5.1-25.9-8.7-39.8-8.7
      c-5.3,0-10.6-0.2-15.9-0.5c-3.7-0.2-7.3-0.6-10.9-1.4c-3.9-0.9-7.5-2.6-8.2-7.1c-0.7-4.3,1.5-7.6,4.9-9.8c2.5-1.6,5.4-3.1,8.3-3.5
      c4.6-0.7,9.3-0.8,14-0.5c14.4,0.9,28.5-0.3,42.4-4.3c1.9-0.6,3.8-1.3,5.7-2.1c1.1-0.5,2-1.2,3-3c-3.2-0.3-6.5-0.6-9.7-0.8
      c-20.3-1.3-40.7-2.2-61-4c-24.2-2.2-45.2-12-62-29.8c-3.3-3.5-6.4-7.5-8.5-11.8c-3.9-7.8,0.3-14.8,9-16c5.6-0.8,10.6,1.1,14.9,4.3
      c4.7,3.5,9.3,7.3,13.6,11.3c9,8.4,19.4,14.3,31.5,16.5c10.4,1.9,20.9,3.7,31.4,4.9c12.8,1.5,25.6,2.3,38.4,3.4
      C790.4,746.1,792.6,745.9,795.8,745.9z M867.6,702.5c-1.5,2.2-2.6,3.8-3.7,5.4c-1.4,2-2.6,4.2-4.3,5.9c-6.3,6.8-14.4,6.9-20.9,0.4
      c-1.8-1.9-3.3-4.1-5-6.1c-1.2-1.4-2.4-2.9-4.6-1.8c-2.4,10.3,2,20.8,10.5,25c8.7,4.3,19.4,2.2,25.6-5.1
      C871.4,718.8,872.7,709.4,867.6,702.5z M864.4,956.1c1.1,6.7,2.8,13.2,3,19.8c0.3,9.9-0.3,19.9-0.6,29.9c-0.1,3.5-1.3,7.1,1,10.5
      C883.8,998.7,877.1,970.3,864.4,956.1z"/>
  </g>

  <!-- Secondary core strokes/fills -->
  <g id="core-accent">
    <path d="M1104.7,796.6c5.3-34.1,0.7-68.2-0.8-102.4c2.6-1.6,4.5-2.3,7.1,0.2c2.1,2.1,5,3.5,7.7,4.8c11.4,5.3,23.5,7.8,35.9,9.6
      c14.8,2.1,46.6,2.6,60.1,0.5c0.1-1.3,0.4-2.6,0.4-4c-1-31.2-3.4-62.3-12.7-92.4c-1-3.1-1.5-6.3-4.4-8.4c-0.3-0.2,0-1.1,0-2.4
      c18.5-0.8,36.8,1.9,55.2,2.5c18.2,0.6,36.4,1.3,55.7,2c-17.4,32.1-17.9,66-17.9,100.7c4.1-0.3,7.8-0.4,11.3-0.7
      c19.5-1.9,39-3.6,58.4-5.9c11.3-1.4,22.5-3.7,33.7-5.8c2.7-0.5,5.7-0.9,7-4.2c0.2-0.6,1.8-1.1,2.5-0.9c0.7,0.2,1.5,1.3,1.7,2.2
      c0.3,1.4,0.2,2.8,0.1,4.3c-0.5,24.5-1.2,48.9-1.5,73.4c-0.1,5.9,0.5,11.8,1.4,17.6c0.7,4,0.3,7.5-1.1,11.2c-0.9,0-1.9,0.3-2.4,0
      c-9.6-7.4-21-10-32.5-11.6c-18.2-2.5-36.4-4.4-54.7-6c-7.4-0.6-15,0.4-23,0.7c-0.3,3.7-0.9,7.1-0.8,10.5c0.7,21.8,1.3,43.6,6.1,65
      c1.2,5.1,2.8,10.2,4.7,15.2c1.2,3.2,3.3,6,5.4,9.5c-1,1.9-2.3,4.3-3.7,6.7c-8.4-0.5-16.7-1.2-25-1.5c-15.7-0.6-31.4-0.8-47.1-1.3
      c-9.7-0.3-19.4-2.3-29.1,0.8c-1.7-3.6-1.5-6.5-0.5-9.4c9.7-26.7,12.4-54.7,15.2-82.7c0.4-3.8-0.3-7.6-0.5-11.6
      c-1.6-0.2-2.8-0.6-4-0.6c-27.6-0.1-55,1.5-82.1,6.9c-6.6,1.3-13.1,3.3-18.5,7.7C1110,798.2,1108,798.3,1104.7,796.6z"/>
  </g>

  <!-- Outer ornaments / rays -->
  <g id="outer-ornaments-1">
    <path d="M228.6,460.8l46.3-53.3c7.8-8.9,16.1-15.5,25.1-19.7c9-4.2,18-6.2,27.2-6.2c9.2,0.1,18.2,1.9,27.2,5.7
      ..."/>
    <path d="M378.2,297.5l94.1-69.3l22.4,30.5L432,304.8l12.9,17.6l51.5-37.9l20.9,28.4l-51.5,37.9l11.6,15.7l62.7-46.1l22.3,30.3
      L468.4,420L378.2,297.5z"/>
    <path d="M598.6,321l-58.5-140.4l36.2-15.1l77.5,71.9l3.7-105.7l36.2-15.1L752.2,257L716.4,272l-27.5-66.1l-3.9,72.8l-23.6,9.8
      L606.9,240l27.5,66.1L598.6,321z"/>
    <path d="M781.2,165.4c-1.5-10.8-0.7-21.3,2.3-31.3c3-10,7.6-19.1,14-27.2c6.3-8.1,14.1-14.8,23.3-20.2c9.2-5.4,19.2-8.9,30-10.3
      ..."/>
    <path d="M1102.5,69.2l131.1,26.9l-7.6,37.1l-46.4-9.5l-23,112l-38.2-7.8l23-112l-46.4-9.5L1102.5,69.2z"/>
    <path d="M1306.4,115.5l107,47l-15.2,34.6l-71.3-31.3l-8.8,20l58.6,25.7l-14.2,32.3l-58.6-25.7l-7.8,17.9l71.3,31.3l-15.1,34.5
      l-107-47L1306.4,115.5z"/>
    <path d="M1557.7,250.9l-41.2,158.8l-34.2-25.3l6.5-22.9l-48.1-35.7l-20,12.9l-34.2-25.3l140.1-85.5L1557.7,250.9z M1512.5,279.5
      l-40.1,25.9l26.8,19.9L1512.5,279.5z"/>
    <path d="M1548.1,431.8l118.3-95.6l24.6,30.5l-47.2,94.6l102.5-26.1l24.6,30.5l-118.3,95.6l-24.4-30.2l55.7-45l-71,16.7l-16.1-19.9
      l31.3-65.9l-55.7,45L1548.1,431.8z"/>
  </g>

  <!-- Inner ornaments / ring text-like shapes -->
  <g id="outer-ornaments-2">
    <path d="M113.2,1085.2l-0.7,0.1c-1,0.1-2,0.6-3.1,1.5c-1.1,0.9-2,2.1-2.7,3.6c-0.8,1.6-1.4,3.5-1.7,5.9c-0.4,2.3-0.4,5.1,0,8.2
      ..."/>
    <path d="M199.5,1172.7l7.4,26.5l-35.6,10l44.6,22.1l9.6,34.1l-55.7-28.3l-46.9,59.4l-9.2-32.8l30.9-39.3l-9.8-4.8l-31.1,8.7
      -7.4-26.5L199.5,1172.7z"/>
    <path d="M247.7,1323.1l-98.9,41.3l-10.6-25.4l98.9-41.3L247.7,1323.1z"/>
    <path d="M208.7,1418.6l-0.6,0.3c-0.9,0.5-1.6,1.3-2.3,2.5c-0.6,1.2-1,2.7-1.1,4.4c-0.1,1.7,0.1,3.8,0.7,6.1
      ..."/>
    <path d="M323.5,1595.7c-5.1,1-10.2,1.2-15.3,0.8c-5.1-0.4-10.1-1.5-14.9-3.3c-4.8-1.8-9.4-4.2-13.8-7.3
      ..."/>
    <path d="M478.8,1638.3l-71.8,79.6l-20.4-18.4l26.7-29.6l-32.4-29.3l-26.7,29.6l-20.3-18.3l71.8-79.6l20.3,18.3l-27.9,30.9
      l32.4,29.3l27.9-30.9L478.8,1638.3z"/>
    <path d="M590.4,1716.1L558,1767c-3.7,5.8-8,10.6-13,14.5c-5,3.9-10.5,6.5-16.3,8c-5.9,1.5-12.1,1.6-18.6,0.5
      ..."/>
    <path d="M623.8,1735.5l25,11l-32.5,73.8l47.1,20.7l-10.7,24.3l-72.1-31.7L623.8,1735.5z"/>
    <path d="M727.3,1780.5l79.3,22.1l-7.2,25.7l-52.8-14.7l-4.1,14.8l43.4,12.1l-6.7,24l-43.4-12.1l-3.7,13.2l52.8,14.7l-7.1,25.5
      l-79.3-22.1L727.3,1780.5z"/>
    <path d="M1159.4,1809.4l64,96.3l-29.3,6l-8.9-14.2l-41.3,8.5l-2.6,16.5l-29.3,6l21-113.7L1159.4,1809.4z M1153.2,1846.6l-5.2,33.2
      l23-4.7L1153.2,1846.6z"/>
    <path d="M1271,1893.7l-38.9-99.9l21.8-8.5l66.3,38.5l-21.7-55.8l25.5-9.9l38.9,99.9l-21.6,8.4L1275,1828l21.7,55.7L1271,1893.7z"/>
    <path d="M1360.4,1743l42.7-25.4c7.2-4.3,14.2-6.8,21.1-7.6c6.9-0.8,13.4-0.2,19.6,1.9c6.1,2.1,11.8,5.3,17,9.8
      ..."/>
    <path d="M1476.5,1672.5l63.3-52.6l17,20.5l-42.2,35.1l9.8,11.8l34.7-28.8l15.9,19.1l-34.7,28.8l8.8,10.6l42.2-35.1l17,20.4
      l-63.3,52.6L1476.5,1672.5z"/>
    <path d="M1602.6,1556.7c4.5-5.2,9.3-8.9,14.1-11.3c4.9-2.4,9.8-3.7,14.6-3.8c4.9-0.1,9.6,0.8,14.2,2.8c4.6,2,8.9,4.7,12.9,8.2
      ..."/>
    <path d="M1744.5,1556.4l-91.5-55.9l14.4-23.6l73.9,8.9l-41.6-61.8l14.4-23.6l91.5,55.9l-14.3,23.3l-43-26.3l27.9,43.1l-9.4,15.4
      l-51.1-5.1l43,26.3L1744.5,1556.4z"/>
    <path d="M1755.6,1308.4l115.6-1.6l-10.8,27.9l-16.7-0.2l-15.2,39.3l12.5,11.2L1830,1413l-84.3-79.2L1755.6,1308.4z M1783.5,1333.8
      l25.1,22.4l8.5-21.9L1783.5,1333.8z"/>
    <path d="M1775.5,1259.4l21.6-91.8l26,6.1l-7.6,32.5l78.4,18.4l-6.3,26.8l-78.4-18.4l-7.6,32.5L1775.5,1259.4z"/>
    <path d="M1803.6,1141.2l7.7-94l26.6,2.2l-2.7,33.3l80.3,6.6l-2.3,27.4l-80.3-6.6l-2.7,33.3L1803.6,1141.2z"/>
  </g>

  <!-- Small dots -->
  <g id="guide-dots">
    <ellipse cx="1790.1" cy="713" rx="16.8" ry="15.6"/>
    <ellipse cx="1891.7" cy="840.7" rx="16.8" ry="15.6"/>
    <ellipse cx="1790.4" cy="817.6" rx="16.8" ry="15.6"/>
    <ellipse cx="1891.7" cy="732.5" rx="16.8" ry="15.6"/>
    <ellipse cx="207.5" cy="711.1" rx="16.8" ry="15.6"/>
    <ellipse cx="105.9" cy="838.8" rx="16.8" ry="15.6"/>
    <ellipse cx="207.2" cy="815.8" rx="16.8" ry="15.6"/>
    <ellipse cx="105.9" cy="730.6" rx="16.8" ry="15.6"/>
  </g>
</svg>
